# xmcd CD database file
#
# Track frame offsets:
#	150
#	14899
#	40872
#	61423
#	73634
#	95399
#	117217
#	128516
#	156379
#	176255
#
# Disc length: 2720 seconds
#
# Revision: 0
# Processed by: cddbd v1.5.2PL0 Copyright (c) Steve Scherf et al.
# Submitted via: CDex 1.70beta2
#
DISCID=820a9e0a
DTITLE=Karen Gallinger - Kinda Blues
DYEAR=2003
DGENRE=Blues
TTITLE0=Every Day I Have The Blues
TTITLE1=Peel Me A Grape
TTITLE2=Born Under A Bad Sign
TTITLE3=It Ain't The Meat
TTITLE4=Who Is (He) She And What Is She To You
TTITLE5=If I Can't Sell It
TTITLE6=Can't Take You Nowhere
TTITLE7=Crossroads
TTITLE8=Doodlin'
TTITLE9=Wang Dang Doodle
EXTD=YEAR: 2003
EXTT0=
EXTT1=
EXTT2=
EXTT3=
EXTT4=
EXTT5=
EXTT6=
EXTT7=
EXTT8=
EXTT9=
PLAYORDER=
